<svg width="33" height="33" viewBox="0 0 33 33" fill="none" xmlns="http://www.w3.org/2000/svg">
<path d="M27.3915 20.785L24.9888 18.3689V12.4154C25.0207 10.2046 24.2517 8.05688 22.8238 6.36884C21.3958 4.68079 19.4053 3.5664 17.2198 3.23144C15.9514 3.0644 14.662 3.16979 13.4376 3.54056C12.2132 3.91134 11.0819 4.53897 10.1192 5.3816C9.15661 6.22422 8.38474 7.26245 7.85514 8.42702C7.32555 9.59159 7.0504 10.8557 7.04807 12.135V18.3689L4.6453 20.785C4.34349 21.0918 4.13883 21.4808 4.05689 21.9034C3.97495 22.3259 4.01937 22.7632 4.1846 23.1606C4.34984 23.558 4.62855 23.8979 4.98589 24.1378C5.34324 24.3777 5.76336 24.5069 6.19375 24.5093H10.6789V24.9632C10.7413 26.3183 11.3383 27.5935 12.3391 28.5093C13.34 29.4251 14.6631 29.9068 16.0184 29.8488C17.3738 29.9068 18.6968 29.4251 19.6977 28.5093C20.6985 27.5935 21.2956 26.3183 21.3579 24.9632V24.5093H25.8431C26.2735 24.5069 26.6936 24.3777 27.0509 24.1378C27.4083 23.8979 27.687 23.558 27.8522 23.1606C28.0175 22.7632 28.0619 22.3259 27.9799 21.9034C27.898 21.4808 27.6933 21.0918 27.3915 20.785ZM18.6882 24.9632C18.6141 25.6052 18.2952 26.194 17.7979 26.6068C17.3006 27.0196 16.6631 27.2246 16.0184 27.179C15.3737 27.2246 14.7363 27.0196 14.2389 26.6068C13.7416 26.194 13.4227 25.6052 13.3487 24.9632V24.5093H18.6882V24.9632ZM7.35509 21.8396L8.93024 20.2644C9.18008 20.016 9.3783 19.7207 9.51347 19.3954C9.64865 19.07 9.71809 18.7212 9.71781 18.3689V12.135C9.71854 11.2345 9.91188 10.3446 10.2849 9.52497C10.6578 8.70534 11.2018 7.97498 11.8803 7.38289C12.5496 6.77643 13.3428 6.32267 14.2048 6.053C15.0668 5.78333 15.9771 5.7042 16.8727 5.82109C18.4165 6.07175 19.8177 6.87165 20.8185 8.07353C21.8192 9.2754 22.3521 10.7983 22.319 12.362V18.3689C22.317 18.7202 22.3843 19.0685 22.5172 19.3938C22.65 19.7191 22.8458 20.0149 23.0932 20.2644L24.6817 21.8396H7.35509Z" fill="#83A4D4"/>
</svg>
