<svg width="33" height="33" viewBox="0 0 33 33" fill="none" xmlns="http://www.w3.org/2000/svg">
<path d="M11.4932 29.8487C10.8418 29.8448 10.2093 29.6293 9.69108 29.2347L6.92789 27.1789C6.29024 26.6818 5.86714 25.9593 5.7455 25.16C5.62386 24.3606 5.8129 23.545 6.2738 22.8807C6.51767 22.5206 6.67265 22.1078 6.72602 21.6762C6.77939 21.2446 6.72963 20.8064 6.58083 20.3978L6.50073 20.1842C6.39712 19.8143 6.20774 19.4741 5.94797 19.1911C5.6882 18.9082 5.36537 18.6905 5.00568 18.5557H4.7921C4.01236 18.2935 3.36753 17.7343 2.99764 16.9995C2.62775 16.2647 2.56265 15.4136 2.81649 14.6311L3.91108 11.1605C4.01184 10.7584 4.19735 10.3824 4.45519 10.0578C4.71303 9.73321 5.03725 9.46745 5.40614 9.27831C5.74967 9.10131 6.12554 8.99585 6.51101 8.96831C6.89648 8.94078 7.28352 8.99175 7.64872 9.11812C8.04636 9.25195 8.47066 9.28664 8.88476 9.21917C9.29885 9.15171 9.6902 8.98413 10.0248 8.73101L10.1983 8.59752C10.5012 8.35585 10.746 8.04929 10.9146 7.70044C11.0833 7.35159 11.1715 6.96934 11.1728 6.58187V6.2615C11.1692 5.44473 11.4884 4.65962 12.0609 4.07709C12.6335 3.49456 13.4129 3.1618 14.2296 3.15125H17.6336C18.0309 3.15232 18.4242 3.23188 18.7907 3.38536C19.1572 3.53884 19.4898 3.76322 19.7694 4.04561C20.3571 4.64335 20.6836 5.44993 20.6771 6.2882V6.66196C20.6703 7.03005 20.7501 7.39459 20.9101 7.72616C21.0701 8.05773 21.3058 8.34707 21.5981 8.57083L21.745 8.67762C22.0446 8.90228 22.394 9.05117 22.7636 9.1116C23.1332 9.17203 23.5119 9.14221 23.8674 9.02468L24.3213 8.87785C24.7058 8.75038 25.1121 8.70167 25.5158 8.73461C25.9196 8.76755 26.3126 8.88148 26.6714 9.06959C27.0302 9.2577 27.3474 9.51615 27.6041 9.82951C27.8609 10.1429 28.0519 10.5047 28.1657 10.8935L29.2203 14.2574C29.4643 15.0348 29.3976 15.8765 29.0342 16.6058C28.6708 17.3351 28.0389 17.8952 27.2713 18.1686L27.0044 18.262C26.6117 18.3906 26.2566 18.6136 25.9703 18.9116C25.6841 19.2095 25.4753 19.5732 25.3625 19.9706C25.2562 20.3401 25.231 20.7282 25.2886 21.1084C25.3462 21.4885 25.4853 21.8517 25.6962 22.1732L26.0433 22.6804C26.5035 23.3485 26.6908 24.1672 26.5667 24.9689C26.4426 25.7706 26.0165 26.4945 25.3758 26.9921L22.6927 29.0611C22.3686 29.309 21.9971 29.4879 21.6012 29.5869C21.2053 29.6858 20.7933 29.7027 20.3907 29.6364C19.988 29.5701 19.6032 29.4221 19.2599 29.2015C18.9166 28.9809 18.622 28.6924 18.3944 28.3536L18.2343 28.1267C18.0156 27.7982 17.7173 27.5303 17.3672 27.3483C17.017 27.1662 16.6265 27.0758 16.232 27.0855C15.8555 27.0953 15.4866 27.1934 15.155 27.3719C14.8234 27.5504 14.5385 27.8044 14.3231 28.1134L14.0161 28.5539C13.7884 28.895 13.4933 29.1858 13.1489 29.4085C12.8045 29.6312 12.4182 29.781 12.0138 29.8487C11.8406 29.8657 11.6663 29.8657 11.4932 29.8487ZM5.87334 15.9927C6.62713 16.2615 7.3073 16.7035 7.8591 17.2831C8.4109 17.8627 8.81893 18.5638 9.05034 19.3299V19.4901C9.33858 20.2865 9.43323 21.1401 9.32646 21.9803C9.21969 22.8205 8.91457 23.6233 8.4363 24.3223C8.35188 24.4156 8.30513 24.5369 8.30513 24.6627C8.30513 24.7885 8.35188 24.9098 8.4363 25.0031L11.3063 27.1789C11.3437 27.2084 11.387 27.2294 11.4333 27.2407C11.4795 27.252 11.5277 27.2533 11.5744 27.2444C11.6212 27.2356 11.6656 27.2168 11.7045 27.1894C11.7434 27.162 11.7761 27.1266 11.8002 27.0855L12.1072 26.645C12.5703 25.9759 13.1886 25.4291 13.9094 25.0514C14.6301 24.6737 15.4316 24.4764 16.2453 24.4764C17.059 24.4764 17.8605 24.6737 18.5813 25.0514C19.302 25.4291 19.9204 25.9759 20.3834 26.645L20.5436 26.8853C20.601 26.9667 20.6866 27.0238 20.7839 27.0455C20.8285 27.052 20.8739 27.0495 20.9175 27.0381C20.9611 27.0266 21.0019 27.0064 21.0375 26.9787L23.7873 24.8963C23.8836 24.8199 23.9469 24.7095 23.9643 24.5879C23.9817 24.4662 23.9518 24.3425 23.8808 24.2422L23.5337 23.735C23.0815 23.0756 22.7831 22.323 22.6607 21.5328C22.5382 20.7427 22.5948 19.9351 22.8262 19.1697C23.0608 18.3653 23.4852 17.629 24.0636 17.0227C24.642 16.4164 25.3575 15.9579 26.1501 15.6857L26.417 15.5923C26.5283 15.5477 26.6174 15.4609 26.6649 15.3509C26.7124 15.2408 26.7145 15.1165 26.6707 15.0049L25.6295 11.6811C25.6045 11.6229 25.5679 11.5705 25.522 11.5269C25.4761 11.4833 25.4218 11.4494 25.3625 11.4275C25.3232 11.4075 25.2797 11.3971 25.2357 11.3971C25.1916 11.3971 25.1482 11.4075 25.1089 11.4275L24.655 11.5743C23.8872 11.8277 23.0694 11.8908 22.2719 11.7583C21.4743 11.6257 20.7209 11.3015 20.0764 10.8134L20.023 10.6933C19.4045 10.2249 18.903 9.61952 18.5579 8.92469C18.2128 8.22985 18.0335 7.46447 18.034 6.68866V6.27485C18.0364 6.14619 17.9886 6.02166 17.9005 5.92778C17.8237 5.85838 17.7237 5.82027 17.6202 5.82099H14.2296C14.1753 5.82438 14.1221 5.83849 14.0732 5.86248C14.0243 5.88648 13.9806 5.91991 13.9446 5.96083C13.9086 6.00176 13.8811 6.04939 13.8636 6.10099C13.8461 6.15258 13.8389 6.20713 13.8425 6.2615V6.59522C13.8426 7.39219 13.6597 8.17854 13.3079 8.89367C12.9562 9.6088 12.4449 10.2336 11.8135 10.72L11.64 10.8535C10.9588 11.3721 10.1606 11.7152 9.31557 11.8525C8.47056 11.9898 7.60473 11.9172 6.79441 11.641C6.73377 11.6207 6.66815 11.6207 6.60752 11.641C6.53219 11.6868 6.47545 11.7577 6.44734 11.8413L5.33939 15.3253C5.30077 15.4439 5.30982 15.573 5.36463 15.6851C5.41944 15.7972 5.5157 15.8836 5.63307 15.926L5.87334 15.9927Z" fill="#83A4D4"/>
<path d="M16.0182 21.1721C15.0942 21.1721 14.1909 20.898 13.4226 20.3847C12.6543 19.8713 12.0554 19.1416 11.7018 18.2879C11.3482 17.4342 11.2557 16.4948 11.436 15.5885C11.6162 14.6822 12.0612 13.8498 12.7146 13.1964C13.368 12.543 14.2005 12.098 15.1068 11.9177C16.0131 11.7374 16.9525 11.83 17.8062 12.1836C18.6599 12.5372 19.3895 13.136 19.9029 13.9043C20.4163 14.6727 20.6903 15.576 20.6903 16.5C20.6903 17.7391 20.1981 18.9275 19.3219 19.8036C18.4457 20.6798 17.2574 21.1721 16.0182 21.1721ZM16.0182 14.4977C15.6222 14.4977 15.2351 14.6151 14.9058 14.8351C14.5765 15.0552 14.3199 15.3679 14.1684 15.7337C14.0168 16.0996 13.9772 16.5022 14.0544 16.8906C14.1317 17.279 14.3224 17.6358 14.6024 17.9158C14.8824 18.1959 15.2392 18.3866 15.6276 18.4638C16.016 18.5411 16.4186 18.5014 16.7845 18.3499C17.1504 18.1983 17.4631 17.9417 17.6831 17.6124C17.9031 17.2831 18.0206 16.896 18.0206 16.5C18.0206 15.969 17.8096 15.4597 17.4341 15.0842C17.0586 14.7086 16.5493 14.4977 16.0182 14.4977Z" fill="#83A4D4"/>
</svg>
