<svg width="32" height="33" viewBox="0 0 32 33" fill="none" xmlns="http://www.w3.org/2000/svg">
<path d="M8.0032 28.4061C7.65466 28.4061 7.32041 28.2676 7.07396 28.0212C6.82751 27.7747 6.68905 27.4405 6.68905 27.0919L6.49193 7.82656C6.47611 7.4354 6.53777 7.04496 6.67338 6.67772C6.80899 6.31047 7.01586 5.97366 7.28211 5.68666C7.54835 5.39965 7.86871 5.16811 8.22476 5.00536C8.58081 4.84261 8.96552 4.75185 9.35677 4.73831L21.9594 4.67261C22.3512 4.67945 22.7378 4.7634 23.0971 4.91968C23.4564 5.07595 23.7814 5.30148 24.0536 5.58338C24.3257 5.86528 24.5396 6.19803 24.6831 6.56263C24.8267 6.92722 24.8969 7.31652 24.89 7.70829L25.074 26.9737C25.0762 27.204 25.0179 27.4308 24.9049 27.6314C24.7919 27.8321 24.6281 27.9995 24.43 28.117C24.2303 28.2323 24.0036 28.293 23.773 28.293C23.5423 28.293 23.3157 28.2323 23.1159 28.117L15.6252 23.9643L8.67341 28.209C8.46755 28.324 8.23853 28.3913 8.0032 28.4061ZM15.5727 21.1126C15.801 21.113 16.0261 21.167 16.2298 21.2703L22.4194 24.7002L22.2617 7.682C22.2617 7.41917 22.0908 7.23519 21.9857 7.24833L9.36991 7.36661C9.26478 7.36661 9.12022 7.53745 9.12022 7.80028L9.27792 24.7528L14.9025 21.2966C15.1067 21.1796 15.3373 21.1163 15.5727 21.1126Z" fill="#83A4D4"/>
</svg>
