<svg width="31" height="31" viewBox="0 0 31 31" fill="none" xmlns="http://www.w3.org/2000/svg">
<path d="M15.49 14.1992C16.5112 14.1992 17.5095 13.8963 18.3586 13.329C19.2077 12.7616 19.8695 11.9552 20.2603 11.0118C20.6511 10.0683 20.7533 9.03011 20.5541 8.02852C20.3549 7.02693 19.8631 6.10691 19.141 5.3848C18.4189 4.6627 17.4989 4.17094 16.4973 3.97171C15.4957 3.77248 14.4575 3.87473 13.5141 4.26554C12.5706 4.65634 11.7642 5.31813 11.1968 6.16724C10.6295 7.01634 10.3267 8.01462 10.3267 9.03583C10.3267 10.4052 10.8707 11.7185 11.839 12.6869C12.8073 13.6552 14.1206 14.1992 15.49 14.1992Z" fill="#707070"/>
<path d="M23.2349 27.1075C23.5773 27.1075 23.9056 26.9715 24.1477 26.7294C24.3898 26.4873 24.5258 26.159 24.5258 25.8167C24.5258 23.4202 23.5738 21.1219 21.8792 19.4274C20.1847 17.7328 17.8864 16.7808 15.4899 16.7808C13.0935 16.7808 10.7952 17.7328 9.10064 19.4274C7.40609 21.1219 6.4541 23.4202 6.4541 25.8167C6.4541 26.159 6.5901 26.4873 6.83218 26.7294C7.07426 26.9715 7.40258 27.1075 7.74493 27.1075H23.2349Z" fill="#707070"/>
</svg>
