<svg width="81" height="80" viewBox="0 0 81 80" fill="none" xmlns="http://www.w3.org/2000/svg">
<circle cx="40.5" cy="40" r="40" fill="#DDEAF3"/>
<path d="M50.0417 28.6875H31.9583C30.5316 28.6875 29.375 29.7881 29.375 31.1458V48.3542C29.375 49.7119 30.5316 50.8125 31.9583 50.8125H50.0417C51.4684 50.8125 52.625 49.7119 52.625 48.3542V31.1458C52.625 29.7881 51.4684 28.6875 50.0417 28.6875Z" stroke="#597393" stroke-width="2" stroke-linecap="round" stroke-linejoin="round"/>
<path d="M36.4791 37.2916C37.5492 37.2916 38.4166 36.4662 38.4166 35.4479C38.4166 34.4296 37.5492 33.6041 36.4791 33.6041C35.4091 33.6041 34.5416 34.4296 34.5416 35.4479C34.5416 36.4662 35.4091 37.2916 36.4791 37.2916Z" stroke="#597393" stroke-width="2" stroke-linecap="round" stroke-linejoin="round"/>
<path d="M52.625 43.4375L46.1667 37.2916L31.9584 50.8125" stroke="#597393" stroke-width="2" stroke-linecap="round" stroke-linejoin="round"/>
</svg>
