<svg width="19" height="24" viewBox="0 0 19 24" fill="none" xmlns="http://www.w3.org/2000/svg">
<path d="M9.03589 10.3267C10.0571 10.3267 11.0554 10.0238 11.9045 9.45649C12.7536 8.88914 13.4154 8.08273 13.8062 7.13926C14.197 6.19578 14.2992 5.15761 14.1 4.15602C13.9008 3.15443 13.409 2.23441 12.6869 1.51231C11.9648 0.790202 11.0448 0.298443 10.0432 0.0992143C9.04162 -0.100014 8.00344 0.00223717 7.05997 0.393038C6.11649 0.783838 5.31009 1.44564 4.74274 2.29474C4.17538 3.14385 3.87256 4.14212 3.87256 5.16334C3.87256 6.53274 4.41655 7.84605 5.38486 8.81436C6.35318 9.78268 7.66649 10.3267 9.03589 10.3267Z" fill="white"/>
<path d="M16.7808 23.235C17.1232 23.235 17.4515 23.099 17.6936 22.8569C17.9357 22.6148 18.0717 22.2865 18.0717 21.9442C18.0717 19.5477 17.1197 17.2494 15.4251 15.5549C13.7306 13.8603 11.4323 12.9083 9.03583 12.9083C6.63938 12.9083 4.34108 13.8603 2.64653 15.5549C0.951987 17.2494 3.57099e-08 19.5477 0 21.9442C0 22.2865 0.135998 22.6148 0.378077 22.8569C0.620155 23.099 0.948483 23.235 1.29083 23.235H16.7808Z" fill="white"/>
</svg>
