<svg width="68" height="13" viewBox="0 0 68 13" fill="none" xmlns="http://www.w3.org/2000/svg">
<path d="M47.9902 1.17004H61.9932C63.5561 1.17004 64.8232 2.43708 64.8232 4.00004V8.67338C64.8232 10.2363 63.5561 11.5034 61.9932 11.5034H47.9902C46.4272 11.5034 45.1602 10.2363 45.1602 8.67338V4.00004C45.1602 2.43708 46.4272 1.17004 47.9902 1.17004Z" stroke="white" stroke-opacity="0.4"/>
<path d="M66.3301 4.33667V8.33667C67.1348 7.99789 67.6581 7.2098 67.6581 6.33667C67.6581 5.46354 67.1348 4.67545 66.3301 4.33667" fill="white" fill-opacity="0.4"/>
<rect x="46.6602" y="2.67004" width="16.66" height="7.33333" rx="1.33333" fill="white"/>
<path fill-rule="evenodd" clip-rule="evenodd" d="M31.6366 2.93736C33.8525 2.93746 35.9837 3.7889 37.5896 5.31569C37.7105 5.43357 37.9038 5.43208 38.0229 5.31236L39.1789 4.14569C39.2392 4.08497 39.2729 4.00272 39.2724 3.91714C39.2719 3.83156 39.2373 3.74971 39.1763 3.68969C34.9612 -0.349853 28.3114 -0.349853 24.0963 3.68969C24.0352 3.74966 24.0006 3.83149 24 3.91707C23.9994 4.00265 24.033 4.08493 24.0933 4.14569L25.2496 5.31236C25.3686 5.43226 25.5621 5.43375 25.6829 5.31569C27.2891 3.7888 29.4205 2.93736 31.6366 2.93736ZM31.6366 6.73303C32.8541 6.73295 34.0281 7.18549 34.9306 8.00269C35.0527 8.11868 35.245 8.11616 35.3639 7.99703L36.5186 6.83036C36.5794 6.76917 36.6132 6.68615 36.6123 6.59988C36.6114 6.51362 36.576 6.43131 36.5139 6.37136C33.7657 3.81498 29.5098 3.81498 26.7616 6.37136C26.6995 6.43131 26.6641 6.51366 26.6633 6.59995C26.6625 6.68625 26.6963 6.76925 26.7573 6.83036L27.9116 7.99703C28.0306 8.11616 28.2229 8.11868 28.3449 8.00269C29.2468 7.18603 30.4199 6.73353 31.6366 6.73303ZM33.9496 9.28685C33.9514 9.37335 33.9174 9.45676 33.8556 9.51736L31.8583 11.533C31.7997 11.5923 31.7199 11.6256 31.6366 11.6256C31.5533 11.6256 31.4735 11.5923 31.4149 11.533L29.4173 9.51736C29.3556 9.45671 29.3216 9.37328 29.3234 9.28677C29.3253 9.20027 29.3627 9.11835 29.4269 9.06036C30.7025 7.98148 32.5707 7.98148 33.8463 9.06036C33.9104 9.1184 33.9478 9.20034 33.9496 9.28685Z" fill="white"/>
<path fill-rule="evenodd" clip-rule="evenodd" d="M17.6602 1H16.6602C16.1079 1 15.6602 1.44772 15.6602 2V10.6667C15.6602 11.219 16.1079 11.6667 16.6602 11.6667H17.6602C18.2124 11.6667 18.6602 11.219 18.6602 10.6667V2C18.6602 1.44772 18.2124 1 17.6602 1ZM11.9935 3.33333H12.9935C13.5458 3.33333 13.9935 3.78105 13.9935 4.33333V10.6667C13.9935 11.219 13.5458 11.6667 12.9935 11.6667H11.9935C11.4412 11.6667 10.9935 11.219 10.9935 10.6667V4.33333C10.9935 3.78105 11.4412 3.33333 11.9935 3.33333ZM8.32682 5.66667H7.32682C6.77454 5.66667 6.32682 6.11438 6.32682 6.66667V10.6667C6.32682 11.219 6.77454 11.6667 7.32682 11.6667H8.32682C8.87911 11.6667 9.32682 11.219 9.32682 10.6667V6.66667C9.32682 6.11438 8.87911 5.66667 8.32682 5.66667ZM3.66016 7.66667H2.66016C2.10787 7.66667 1.66016 8.11438 1.66016 8.66667V10.6667C1.66016 11.219 2.10787 11.6667 2.66016 11.6667H3.66016C4.21244 11.6667 4.66016 11.219 4.66016 10.6667V8.66667C4.66016 8.11438 4.21244 7.66667 3.66016 7.66667Z" fill="white"/>
</svg>
