<svg width="34" height="34" viewBox="0 0 34 34" fill="none" xmlns="http://www.w3.org/2000/svg">
<path d="M12.7499 25.1458C12.4808 25.1458 12.2116 25.0467 11.9991 24.8342L9.16578 22.0008C8.86828 21.7033 8.76911 21.2358 8.93911 20.8392C9.10911 20.4425 9.49161 20.1875 9.91661 20.1875H18.4166C18.9974 20.1875 19.4791 20.6692 19.4791 21.25C19.4791 21.8308 18.9974 22.3125 18.4166 22.3125H12.4808L13.5008 23.3325C13.9116 23.7433 13.9116 24.4233 13.5008 24.8342C13.2883 25.0467 13.0191 25.1458 12.7499 25.1458Z" fill="#010688"/>
<path d="M9.91662 22.3125C9.64746 22.3125 9.37829 22.2133 9.16579 22.0008C8.75496 21.59 8.75496 20.91 9.16579 20.4991L11.9991 17.6658C12.41 17.255 13.09 17.255 13.5008 17.6658C13.9116 18.0766 13.9116 18.7566 13.5008 19.1675L10.6675 22.0008C10.455 22.2133 10.1858 22.3125 9.91662 22.3125Z" fill="#010688"/>
<path d="M21.25 32.2292H12.75C5.05754 32.2292 1.77087 28.9425 1.77087 21.25V12.75C1.77087 5.05754 5.05754 1.77087 12.75 1.77087H19.8334C20.4142 1.77087 20.8959 2.25254 20.8959 2.83337C20.8959 3.41421 20.4142 3.89587 19.8334 3.89587H12.75C6.21921 3.89587 3.89587 6.21921 3.89587 12.75V21.25C3.89587 27.7809 6.21921 30.1042 12.75 30.1042H21.25C27.7809 30.1042 30.1042 27.7809 30.1042 21.25V14.1667C30.1042 13.5859 30.5859 13.1042 31.1667 13.1042C31.7475 13.1042 32.2292 13.5859 32.2292 14.1667V21.25C32.2292 28.9425 28.9425 32.2292 21.25 32.2292Z" fill="#010688"/>
<path d="M31.1667 15.2292H25.5C20.655 15.2292 18.7709 13.345 18.7709 8.50002V2.83336C18.7709 2.40836 19.0259 2.01169 19.4225 1.85586C19.8192 1.68586 20.2725 1.78502 20.5842 2.08252L31.9175 13.4159C32.215 13.7134 32.3142 14.1809 32.1442 14.5775C31.9742 14.9742 31.5917 15.2292 31.1667 15.2292ZM20.8959 5.39752V8.50002C20.8959 12.155 21.845 13.1042 25.5 13.1042H28.6025L20.8959 5.39752Z" fill="#010688"/>
</svg>
