<svg width="34" height="34" viewBox="0 0 34 34" fill="none" xmlns="http://www.w3.org/2000/svg">
<path d="M24.0834 29.3959H9.91671C3.66921 29.3959 1.77087 27.4975 1.77087 21.25V20.5417C1.77087 19.9609 2.25254 19.4792 2.83337 19.4792C4.19337 19.4792 5.31254 18.36 5.31254 17C5.31254 15.64 4.19337 14.5209 2.83337 14.5209C2.25254 14.5209 1.77087 14.0392 1.77087 13.4584V12.75C1.77087 6.50252 3.66921 4.60419 9.91671 4.60419H24.0834C30.3309 4.60419 32.2292 6.50252 32.2292 12.75V14.1667C32.2292 14.7475 31.7475 15.2292 31.1667 15.2292C29.8067 15.2292 28.6875 16.3484 28.6875 17.7084C28.6875 19.0684 29.8067 20.1875 31.1667 20.1875C31.7475 20.1875 32.2292 20.6692 32.2292 21.25C32.2292 27.4975 30.3309 29.3959 24.0834 29.3959ZM3.89587 21.4767C3.92421 26.35 4.93004 27.2709 9.91671 27.2709H24.0834C28.815 27.2709 29.9625 26.435 30.09 22.185C28.0642 21.7034 26.5625 19.8759 26.5625 17.7084C26.5625 15.5409 28.0784 13.7134 30.1042 13.2317V12.75C30.1042 7.69252 29.1409 6.72919 24.0834 6.72919H9.91671C4.93004 6.72919 3.92421 7.65002 3.89587 12.5234C5.92171 13.005 7.43754 14.8325 7.43754 17C7.43754 19.1675 5.92171 20.995 3.89587 21.4767Z" fill="#010688"/>
<path d="M21.25 22.4967C20.4567 22.4967 19.8192 21.8592 19.8192 21.08C19.8192 20.3008 20.4567 19.6633 21.2359 19.6633C22.015 19.6633 22.6525 20.3008 22.6525 21.08C22.6525 21.8592 22.0434 22.4967 21.25 22.4967Z" fill="#010688"/>
<path d="M12.75 15.4134C11.9567 15.4134 11.3192 14.7759 11.3192 13.9967C11.3192 13.2175 11.9567 12.58 12.7359 12.58C13.515 12.58 14.1525 13.2175 14.1525 13.9967C14.1525 14.7759 13.5434 15.4134 12.75 15.4134Z" fill="#010688"/>
<path d="M12.2258 23.2759C11.9567 23.2759 11.6875 23.1767 11.475 22.9642C11.0642 22.5534 11.0642 21.8734 11.475 21.4625L21.0092 11.9284C21.42 11.5175 22.1 11.5175 22.5108 11.9284C22.9217 12.3392 22.9217 13.0192 22.5108 13.43L12.9767 22.9642C12.7783 23.1767 12.495 23.2759 12.2258 23.2759Z" fill="#010688"/>
</svg>
