<svg width="34" height="34" viewBox="0 0 34 34" fill="none" xmlns="http://www.w3.org/2000/svg">
<path d="M15.4701 27.9791C15.0592 27.9791 14.6625 27.9224 14.3367 27.7949C9.4917 26.1374 1.77087 20.2158 1.77087 11.4608C1.77087 6.96992 5.39753 3.3291 9.86003 3.3291C11.9992 3.3291 13.9967 4.15075 15.4842 5.60991C16.9859 4.15075 18.9692 3.3291 21.1084 3.3291C25.5709 3.3291 29.1975 6.96992 29.1975 11.4608C29.1975 12.0699 29.155 12.6933 29.07 13.3308C29.0275 13.6566 28.8292 13.9541 28.5459 14.1241C28.2625 14.2941 27.9084 14.3083 27.5967 14.1808C25.8542 13.4299 23.6867 13.9966 22.5534 15.5124C22.3551 15.7816 21.9726 15.9233 21.7034 15.9374C21.3634 15.9374 21.0517 15.7816 20.8534 15.5124C20.0459 14.4358 18.8134 13.8266 17.4817 13.8266C15.1725 13.8266 13.2884 15.7249 13.2884 18.0624C13.2884 21.7458 15.3992 24.3666 17.1842 25.9391C17.4392 26.1658 17.5667 26.4916 17.5384 26.8316C17.51 27.1716 17.3259 27.4691 17.0284 27.6532C16.8725 27.7382 16.745 27.7949 16.6742 27.8091C16.3059 27.9224 15.8951 27.9791 15.4701 27.9791ZM9.86003 5.4541C6.57336 5.4541 3.89587 8.14575 3.89587 11.4608C3.89587 18.8699 10.0584 23.4316 13.6 25.1883C12.2542 23.3891 11.1492 21.0091 11.1492 18.0482C11.1492 14.5349 13.9825 11.6874 17.4675 11.6874C19.0542 11.6874 20.5417 12.2683 21.6892 13.3024C23.12 12.0274 25.16 11.4466 27.0584 11.8007C27.0584 11.6874 27.0584 11.5741 27.0584 11.4749C27.0584 8.15994 24.3809 5.46824 21.0942 5.46824C19.2101 5.46824 17.4675 6.34658 16.32 7.86241C16.1217 8.13158 15.8101 8.28744 15.4701 8.28744C15.1301 8.28744 14.8184 8.13158 14.6201 7.86241C13.5009 6.33241 11.7584 5.4541 9.86003 5.4541Z" fill="#010688"/>
<path d="M21.7036 30.6708C21.3777 30.6708 21.0377 30.6283 20.7686 30.5291C19.5502 30.1183 17.5811 29.1125 15.7819 27.5117C13.6852 25.6559 11.1777 22.5108 11.1777 18.0483C11.1777 14.535 14.0111 11.6875 17.4961 11.6875C19.0827 11.6875 20.5702 12.2684 21.7177 13.3025C23.5027 11.7017 26.2227 11.2483 28.461 12.2258C30.756 13.2458 32.2436 15.5408 32.2436 18.0625C32.2436 24.7775 26.3502 29.2825 22.6386 30.5433C22.3552 30.6283 22.0294 30.6708 21.7036 30.6708ZM17.4819 13.8125C15.1727 13.8125 13.2886 15.7108 13.2886 18.0483C13.2886 21.7317 15.3994 24.3525 17.1844 25.925C18.7569 27.3133 20.4144 28.1775 21.4486 28.5175C21.5619 28.56 21.8311 28.56 21.9302 28.5175C24.0552 27.795 30.1044 24.3242 30.1044 18.0483C30.1044 16.3625 29.1127 14.8325 27.5969 14.1667C25.8827 13.4158 23.6869 13.9825 22.5536 15.4983C22.3552 15.7675 21.9727 15.9092 21.7036 15.9233C21.3636 15.9233 21.0519 15.7675 20.8535 15.4983C20.046 14.4217 18.8135 13.8125 17.4819 13.8125Z" fill="#010688"/>
</svg>
