<svg width="34" height="34" viewBox="0 0 34 34" fill="none" xmlns="http://www.w3.org/2000/svg">
<path d="M17 13.8125C16.8583 13.8125 16.7308 13.7841 16.5892 13.7275C16.1925 13.5716 15.9375 13.175 15.9375 12.75V2.83331C15.9375 2.25248 16.4192 1.77081 17 1.77081C17.5808 1.77081 18.0625 2.25248 18.0625 2.83331V10.1858L19.0825 9.16581C19.4933 8.75498 20.1733 8.75498 20.5842 9.16581C20.995 9.57665 20.995 10.2566 20.5842 10.6675L17.7508 13.5008C17.5525 13.6991 17.2833 13.8125 17 13.8125Z" fill="#010688"/>
<path d="M17 13.8125C16.7308 13.8125 16.4616 13.7134 16.2491 13.5009L13.4158 10.6675C13.005 10.2567 13.005 9.57669 13.4158 9.16585C13.8266 8.75502 14.5066 8.75502 14.9175 9.16585L17.7508 11.9992C18.1616 12.41 18.1616 13.09 17.7508 13.5009C17.5383 13.7134 17.2691 13.8125 17 13.8125Z" fill="#010688"/>
<path d="M19.4934 25.1459H14.4926C13.0051 25.1459 11.6734 24.3242 11.0076 22.9925L9.35005 19.6775C9.29339 19.55 9.16589 19.4792 9.03839 19.4792H2.80505C2.22422 19.4792 1.74255 18.9975 1.74255 18.4167C1.74255 17.8359 2.22422 17.3542 2.80505 17.3542H9.05255C10.0017 17.3542 10.8517 17.8784 11.2767 18.7284L12.9342 22.0434C13.2317 22.6525 13.8409 23.0209 14.5209 23.0209H19.5217C20.2017 23.0209 20.8109 22.6525 21.1084 22.0434L22.7659 18.7284C23.1909 17.8784 24.0409 17.3542 24.9901 17.3542H31.1667C31.7476 17.3542 32.2292 17.8359 32.2292 18.4167C32.2292 18.9975 31.7476 19.4792 31.1667 19.4792H24.9901C24.8484 19.4792 24.7351 19.55 24.6784 19.6775L23.0209 22.9925C22.3126 24.3242 20.9809 25.1459 19.4934 25.1459Z" fill="#010688"/>
<path d="M21.25 32.2291H12.75C5.05754 32.2291 1.77087 28.9425 1.77087 21.25V15.5833C1.77087 8.93915 4.23587 5.60998 9.76087 4.80248C10.3559 4.71748 10.88 5.11415 10.965 5.69498C11.05 6.27581 10.6534 6.81415 10.0725 6.89915C5.62421 7.55081 3.89587 9.98748 3.89587 15.5833V21.25C3.89587 27.7808 6.21921 30.1041 12.75 30.1041H21.25C27.7809 30.1041 30.1042 27.7808 30.1042 21.25V15.5833C30.1042 9.98748 28.3759 7.55081 23.9275 6.89915C23.3467 6.81415 22.95 6.27581 23.035 5.69498C23.12 5.11415 23.6584 4.71748 24.2392 4.80248C29.7642 5.60998 32.2292 8.93915 32.2292 15.5833V21.25C32.2292 28.9425 28.9425 32.2291 21.25 32.2291Z" fill="#010688"/>
</svg>
