<svg width="34" height="34" viewBox="0 0 34 34" fill="none" xmlns="http://www.w3.org/2000/svg">
<path d="M26.9167 18.9266H2.83337C2.25254 18.9266 1.77087 18.445 1.77087 17.8641C1.77087 17.2833 2.25254 16.8016 2.83337 16.8016H26.9167C27.4975 16.8016 27.9792 17.2833 27.9792 17.8641C27.9792 18.445 27.4975 18.9266 26.9167 18.9266Z" fill="#010688"/>
<path d="M21.5617 30.8125H8.18842C3.32925 30.8125 1.77087 29.2683 1.77087 24.4658V14.5633C1.77087 10.7525 2.63507 8.50001 7.02674 8.24501C7.39507 8.23084 7.77758 8.21667 8.18842 8.21667H21.5617C26.4208 8.21667 27.9792 9.76084 27.9792 14.5633V24.6925C27.9225 29.325 26.3642 30.8125 21.5617 30.8125ZM8.18842 10.3417C7.80592 10.3417 7.45175 10.3558 7.12592 10.37C4.59008 10.5258 3.89587 11.0642 3.89587 14.5633V24.4658C3.89587 28.0925 4.49092 28.6875 8.18842 28.6875H21.5617C25.2167 28.6875 25.8117 28.1208 25.8542 24.6783V14.5633C25.8542 10.9367 25.2592 10.3417 21.5617 10.3417H8.18842V10.3417Z" fill="#010688"/>
<path d="M26.9167 25.755C26.6475 25.755 26.3784 25.6558 26.1942 25.4717C25.9817 25.2733 25.8542 24.99 25.8542 24.6925V14.5633C25.8542 10.9367 25.2592 10.3417 21.5617 10.3417H8.18842C7.80592 10.3417 7.45175 10.3558 7.12592 10.37C6.84258 10.3842 6.55918 10.2708 6.34668 10.0725C6.13418 9.87417 6.02087 9.59084 6.02087 9.29334C6.07754 4.675 7.63592 3.1875 12.4384 3.1875H25.8117C30.6708 3.1875 32.2292 4.73167 32.2292 9.53417V19.4367C32.2292 23.2475 31.365 25.5 26.9733 25.755C26.9592 25.755 26.9309 25.755 26.9167 25.755ZM8.18842 8.21667H21.5617C26.4208 8.21667 27.9792 9.76083 27.9792 14.5633V23.5167C29.6225 23.2192 30.1042 22.3692 30.1042 19.4367V9.53417C30.1042 5.9075 29.5092 5.3125 25.8117 5.3125H12.4384C9.20842 5.3125 8.37258 5.75167 8.18842 8.21667Z" fill="#010688"/>
<path d="M9.86042 26.2933H7.42371C6.84287 26.2933 6.36121 25.8117 6.36121 25.2308C6.36121 24.65 6.84287 24.1683 7.42371 24.1683H9.86042C10.4413 24.1683 10.9229 24.65 10.9229 25.2308C10.9229 25.8117 10.4554 26.2933 9.86042 26.2933Z" fill="#010688"/>
<path d="M17.779 26.2933H12.9056C12.3248 26.2933 11.8431 25.8117 11.8431 25.2308C11.8431 24.65 12.3248 24.1683 12.9056 24.1683H17.779C18.3598 24.1683 18.8415 24.65 18.8415 25.2308C18.8415 25.8117 18.374 26.2933 17.779 26.2933Z" fill="#010688"/>
</svg>
