<svg width="34" height="34" viewBox="0 0 34 34" fill="none" xmlns="http://www.w3.org/2000/svg">
<path d="M18.4166 13.8125H9.91663C9.33579 13.8125 8.85413 13.3308 8.85413 12.75C8.85413 12.1692 9.33579 11.6875 9.91663 11.6875H18.4166C18.9975 11.6875 19.4791 12.1692 19.4791 12.75C19.4791 13.3308 18.9975 13.8125 18.4166 13.8125Z" fill="#010688"/>
<path d="M26.9731 20.9665C24.834 20.9665 23.0207 19.3798 22.8507 17.3398C22.7373 16.164 23.1623 15.0165 24.0123 14.1807C24.7207 13.444 25.7265 13.0332 26.789 13.0332H29.7498C31.1523 13.0757 32.229 14.1806 32.229 15.5406V18.4591C32.229 19.8191 31.1524 20.924 29.7924 20.9665H26.9731ZM29.7073 15.1582H26.8031C26.3073 15.1582 25.854 15.3424 25.5282 15.6824C25.1174 16.079 24.919 16.6173 24.9757 17.1557C25.0465 18.0907 25.9531 18.8415 26.9731 18.8415H29.7498C29.934 18.8415 30.104 18.6716 30.104 18.4591V15.5406C30.104 15.3281 29.934 15.1724 29.7073 15.1582Z" fill="#010688"/>
<path d="M22.6667 30.1042H9.91671C5.04337 30.1042 1.77087 26.8317 1.77087 21.9584V12.0417C1.77087 7.67837 4.46251 4.51922 8.64167 3.99505C9.02417 3.93838 9.46337 3.89587 9.91671 3.89587H22.6667C23.0067 3.89587 23.4459 3.91004 23.8992 3.98087C28.0784 4.46254 30.8125 7.63587 30.8125 12.0417V14.0959C30.8125 14.6767 30.3309 15.1584 29.75 15.1584H26.8033C26.3075 15.1584 25.8542 15.3426 25.5284 15.6826L25.5142 15.6967C25.1176 16.0792 24.9334 16.6033 24.9759 17.1417C25.0467 18.0767 25.9533 18.8275 26.9733 18.8275H29.75C30.3309 18.8275 30.8125 19.3092 30.8125 19.89V21.9442C30.8125 26.8317 27.54 30.1042 22.6667 30.1042ZM9.91671 6.02087C9.57671 6.02087 9.25086 6.04919 8.92502 6.09169C5.80836 6.48836 3.89587 8.75504 3.89587 12.0417V21.9584C3.89587 25.6134 6.26171 27.9792 9.91671 27.9792H22.6667C26.3217 27.9792 28.6875 25.6134 28.6875 21.9584V20.9667H26.9733C24.8342 20.9667 23.0209 19.38 22.8509 17.34C22.7375 16.1784 23.1626 15.0167 24.0126 14.1951C24.7492 13.4442 25.7408 13.0334 26.8033 13.0334H28.6875V12.0417C28.6875 8.72671 26.7467 6.44584 23.6017 6.07751C23.2617 6.02084 22.9642 6.02087 22.6667 6.02087H9.91671V6.02087Z" fill="#010688"/>
</svg>
